<?xml version="1.0" encoding="UTF-8"?>
<svg xmlns="http://www.w3.org/2000/svg" width="236" height="48" viewBox="0 0 236 48" fill="none">
  <path d="M74.5869 21.0951H76.8818L75.6649 17.9868H68.377L67.1866 21.0951H69.4219V23.9984H60.97V20.6851H63.1788L69.2169 6.57208H66.922V3.25879H73.8661L81.1276 20.6851H83.3365V23.9984H74.5936V21.0951H74.5869ZM72.0606 7.82203H72.0342L69.3888 14.938H74.6729L72.0606 7.82203Z" fill="#00D4FF"></path>
  <path d="M84.0574 20.6851H86.3192V6.57208H84.0574V3.25879H92.5093V6.57208H90.274V20.4536H95.2406V17.7223H99.1888V23.9984H84.0574V20.6851Z" fill="#00D4FF"></path>
  <path d="M108.454 20.6853H110.723V23.9986H102.244V20.6853H104.506V6.77733H101.457V9.79966H98.3228V3.26562H114.645V9.79966H111.51V6.77733H108.461V20.6853H108.454Z" fill="#00D4FF"></path>
  <path d="M221.397 21.9079C220.266 23.6208 218.434 24.4078 216.404 24.4078C211.959 24.4078 208.448 20.7175 208.448 16.3328C208.448 11.9482 212.052 8.08594 216.582 8.08594C218.586 8.08594 220.325 9.01843 221.403 10.6982V8.48934H226.952V11.8027H225.008V20.6911H226.952V24.0044H221.403V21.9145L221.397 21.9079ZM221.456 16.1543C221.456 13.6015 219.333 11.5381 216.781 11.5381C214.228 11.5381 212.105 13.7139 212.105 16.3328C212.105 18.9517 214.228 20.949 216.721 20.949C219.393 20.949 221.456 18.7996 221.456 16.1543Z" fill="#00D4FF"></path>
  <path d="M233.393 20.6853H235.397V23.9986H227.818V20.6853H229.849V11.7969H227.845V8.4836H233.393V20.6787V20.6853ZM233.393 7.00881H229.849V3.26562H233.393V7.00881Z" fill="#00D4FF"></path>
  <path d="M46.0427 0.813477H4.07412C2.27345 0.813477 0.813721 2.2732 0.813721 4.07387V43.9262C0.813721 45.7268 2.27345 47.1866 4.07412 47.1866H46.0427C47.8434 47.1866 49.3031 45.7268 49.3031 43.9262V4.07387C49.3031 2.2732 47.8434 0.813477 46.0427 0.813477Z" fill="#091E22"></path>
  <path d="M46.049 1.62689C47.3982 1.62689 48.496 2.72471 48.496 4.07384V43.9262C48.496 45.2753 47.3982 46.3731 46.049 46.3731H4.07385C2.72472 46.3731 1.62689 45.2753 1.62689 43.9262V4.07384C1.62689 2.72471 2.72472 1.62689 4.07385 1.62689H46.049ZM46.049 0H4.07385C1.8253 0 0 1.82529 0 4.07384V43.9262C0 46.1747 1.8253 48 4.07385 48H46.049C48.2976 48 50.1229 46.1747 50.1229 43.9262V4.07384C50.1229 1.82529 48.2976 0 46.049 0Z" fill="#00D4FF"></path>
  <path d="M13.6233 33.1865C13.0413 33.1865 12.4791 32.8757 12.1882 32.3268C11.7649 31.5331 12.0625 30.5478 12.8495 30.1179L24.2377 23.9939L12.8495 17.8699C12.0559 17.44 11.7583 16.4546 12.1882 15.661C12.6114 14.8674 13.6034 14.5698 14.397 14.9997L28.4505 22.5588C28.9796 22.8432 29.3102 23.3921 29.3102 23.9939C29.3102 24.5957 28.9796 25.1446 28.4505 25.429L14.397 32.9881C14.1523 33.1204 13.8878 33.1799 13.6299 33.1799L13.6233 33.1865Z" fill="#00D4FF"></path>
  <path d="M36.4991 32.7618C36.1618 32.7618 35.8906 32.4907 35.8906 32.1534V15.8448C35.8906 15.5075 36.1618 15.2363 36.4991 15.2363C36.8363 15.2363 37.1075 15.5075 37.1075 15.8448V32.1534C37.1075 32.4907 36.8363 32.7618 36.4991 32.7618Z" fill="#FFFCFF"></path>
  <path d="M68.0586 36.6783C68.0586 36.5791 68.1446 36.4932 68.2438 36.4932H68.6141C68.7199 36.4932 68.7993 36.5791 68.7993 36.6783V40.7985C68.7993 41.9161 69.4937 42.7428 70.6378 42.7428C71.7819 42.7428 72.4962 41.9294 72.4962 40.8183V36.6783C72.4962 36.5791 72.5755 36.4932 72.6813 36.4932H73.0517C73.1509 36.4932 73.2369 36.5791 73.2369 36.6783V40.8514C73.2369 42.3394 72.1787 43.4306 70.6378 43.4306C69.0969 43.4306 68.0586 42.3328 68.0586 40.8514V36.6783Z" fill="#F7F7F7"></path>
  <path d="M74.7378 39.0325C74.7378 38.9267 74.837 38.8143 74.956 38.8143H75.1148C75.214 38.8143 75.2735 38.8539 75.2933 38.9531L75.3925 39.297C75.3925 39.297 75.9679 38.7217 76.907 38.7217C78.2164 38.7217 78.5405 39.5748 78.5405 40.7388V43.1262C78.5405 43.2452 78.4347 43.3378 78.3289 43.3378H78.0379C77.9188 43.3378 77.8263 43.2386 77.8263 43.1262V40.6396C77.8263 39.7798 77.5353 39.3764 76.8673 39.3764C76.0142 39.3764 75.4785 40.0047 75.4785 40.0047V43.1262C75.4785 43.2452 75.3727 43.3378 75.2603 43.3378H74.9693C74.8502 43.3378 74.751 43.2386 74.751 43.1262V39.0391L74.7378 39.0325Z" fill="#F7F7F7"></path>
  <path d="M80.0549 36.7048C80.0549 36.599 80.1541 36.4932 80.2732 36.4932H80.5642C80.67 36.4932 80.7824 36.599 80.7824 36.7048V43.1198C80.7824 43.2388 80.6766 43.3314 80.5642 43.3314H80.2732C80.1541 43.3314 80.0549 43.2322 80.0549 43.1198V36.7048Z" fill="#F7F7F7"></path>
  <path d="M84.3338 38.7217C85.5838 38.7217 86.6022 39.7997 86.6022 41.0694C86.6022 42.3392 85.5838 43.4436 84.3338 43.4436C83.0839 43.4436 82.0654 42.359 82.0654 41.0694C82.0654 39.7798 83.0839 38.7217 84.3338 38.7217ZM84.3338 42.7889C85.2266 42.7889 85.8814 42.0085 85.8814 41.0694C85.8814 40.1303 85.2266 39.3764 84.3338 39.3764C83.441 39.3764 82.7797 40.1502 82.7797 41.0694C82.7797 41.9887 83.4476 42.7889 84.3338 42.7889Z" fill="#F7F7F7"></path>
  <path d="M89.8303 38.7217C90.5048 38.7217 91.0537 38.9862 91.4704 39.4624C91.5564 39.5682 91.5365 39.6938 91.4307 39.7864L91.272 39.9319C91.1265 40.0576 91.0405 39.9584 90.9479 39.8658C90.6371 39.5153 90.2734 39.3764 89.8104 39.3764C88.9507 39.3764 88.2629 40.1369 88.2629 41.076C88.2629 42.0151 88.9375 42.7889 89.7774 42.7889C90.4585 42.7889 90.7561 42.4384 91.0074 42.1408C91.1331 41.9953 91.2588 42.035 91.391 42.1606L91.4505 42.2201C91.5497 42.3194 91.5894 42.4186 91.5101 42.531C91.1662 43.027 90.5644 43.4436 89.8104 43.4436C88.4679 43.4436 87.5288 42.445 87.5288 41.0893C87.5288 39.7335 88.5076 38.7217 89.817 38.7217H89.8303Z" fill="#F7F7F7"></path>
  <path d="M92.72 36.7048C92.72 36.599 92.8192 36.4932 92.9382 36.4932H93.2292C93.335 36.4932 93.4474 36.599 93.4474 36.7048V40.5273L95.3256 38.9533C95.4248 38.8674 95.5108 38.8145 95.5968 38.8145H96.1457C96.3441 38.8145 96.3309 39.0327 96.2515 39.0856L94.1683 40.8183L96.4102 43.047C96.4962 43.1264 96.4896 43.3314 96.2912 43.3314H95.7357C95.6497 43.3314 95.5571 43.2851 95.5108 43.2454L93.4474 41.063V43.1198C93.4474 43.2388 93.3416 43.3314 93.2292 43.3314H92.9382C92.8192 43.3314 92.72 43.2322 92.72 43.1198V36.7048Z" fill="#F7F7F7"></path>
  <path d="M97.2698 37.128C97.2698 36.8172 97.5013 36.5791 97.7989 36.5791C98.0965 36.5791 98.3345 36.8106 98.3345 37.128C98.3345 37.4124 98.1031 37.6571 97.7989 37.6571C97.4946 37.6571 97.2698 37.4124 97.2698 37.128ZM97.455 39.0327C97.455 38.9269 97.5542 38.8144 97.6732 38.8144H97.9642C98.07 38.8144 98.1824 38.9203 98.1824 39.0327V43.1198C98.1824 43.2388 98.0766 43.3314 97.9642 43.3314H97.6732C97.5542 43.3314 97.455 43.2322 97.455 43.1198V39.0327Z" fill="#F7F7F7"></path>
  <path d="M99.7034 39.0325C99.7034 38.9267 99.8026 38.8143 99.9216 38.8143H100.08C100.18 38.8143 100.239 38.8539 100.259 38.9531L100.358 39.297C100.358 39.297 100.933 38.7217 101.873 38.7217C103.182 38.7217 103.506 39.5748 103.506 40.7388V43.1262C103.506 43.2452 103.4 43.3378 103.294 43.3378H103.003C102.884 43.3378 102.792 43.2386 102.792 43.1262V40.6396C102.792 39.7798 102.501 39.3764 101.833 39.3764C100.98 39.3764 100.444 40.0047 100.444 40.0047V43.1262C100.444 43.2452 100.338 43.3378 100.226 43.3378H99.9348C99.8158 43.3378 99.7166 43.2386 99.7166 43.1262V39.0391L99.7034 39.0325Z" fill="#F7F7F7"></path>
  <path d="M108.797 43.3709C108.797 44.9184 107.852 45.4806 106.82 45.4806C106.106 45.4806 105.477 45.1102 105.246 44.892C105.167 44.8258 105.147 44.6936 105.2 44.6274L105.398 44.3431C105.464 44.2372 105.583 44.2372 105.689 44.3298C105.934 44.5348 106.324 44.8126 106.827 44.8126C107.541 44.8126 108.09 44.4224 108.09 43.3643V43.0402C108.09 43.0402 107.58 43.4436 106.84 43.4436C105.596 43.4436 104.697 42.3987 104.697 41.076C104.697 39.7534 105.577 38.7217 106.807 38.7217C107.62 38.7217 108.156 39.1846 108.156 39.1846L108.222 38.9796C108.268 38.8936 108.321 38.8209 108.44 38.8209H108.579C108.698 38.8209 108.804 38.9267 108.804 39.0391V43.3709H108.797ZM106.932 42.7823C107.561 42.7823 108.076 42.4119 108.076 42.4119V39.9385C108.076 39.9385 107.62 39.3896 106.886 39.3896C105.987 39.3896 105.431 40.1898 105.431 41.0694C105.431 42.0482 106.079 42.7823 106.939 42.7823H106.932Z" fill="#F7F7F7"></path>
  <path d="M112.209 39.4503C112.071 39.4503 111.985 39.3511 111.985 39.2321V39.0337C111.985 38.9081 112.071 38.8155 112.209 38.8155H112.805V37.5655C112.805 37.4465 112.91 37.3605 113.023 37.3473L113.327 37.3274C113.446 37.3208 113.532 37.4267 113.532 37.5457V38.8155H114.861C114.987 38.8155 115.086 38.9014 115.086 39.0337V39.2321C115.086 39.3511 114.987 39.4503 114.861 39.4503H113.532V42.1486C113.532 42.6182 113.678 42.7967 113.936 42.7967C114.359 42.7967 114.637 42.6182 114.828 42.5057C115.007 42.3999 115.06 42.4859 115.113 42.5917L115.199 42.7967C115.258 42.9422 115.238 43.015 115.119 43.0877C114.921 43.2266 114.451 43.4514 113.85 43.4514C112.99 43.4514 112.811 42.9025 112.811 42.2015V39.4503H112.216H112.209Z" fill="#F7F7F7"></path>
  <path d="M116.224 36.7048C116.224 36.599 116.323 36.4932 116.442 36.4932H116.733C116.839 36.4932 116.951 36.599 116.951 36.7048V39.2972C116.951 39.2972 117.48 38.7219 118.386 38.7219C119.511 38.7219 120.02 39.4163 120.02 40.739V43.1264C120.02 43.2454 119.914 43.338 119.808 43.338H119.504C119.385 43.338 119.286 43.2388 119.286 43.1264V40.739C119.286 39.8792 119.035 39.3766 118.34 39.3766C117.48 39.3766 116.951 40.0247 116.951 40.0247V43.1264C116.951 43.2454 116.846 43.338 116.733 43.338H116.442C116.323 43.338 116.224 43.2388 116.224 43.1264V36.7114V36.7048Z" fill="#F7F7F7"></path>
  <path d="M123.399 38.7217C124.583 38.7217 125.443 39.5946 125.443 40.7784C125.443 40.8578 125.43 40.9768 125.423 41.0496C125.417 41.1686 125.317 41.248 125.218 41.248H121.931C121.951 42.0019 122.586 42.7955 123.406 42.7955C124.001 42.7955 124.372 42.5905 124.63 42.4252C124.788 42.3193 124.854 42.2797 124.973 42.4516L125.093 42.617C125.178 42.7558 125.218 42.8021 125.053 42.9278C124.782 43.146 124.18 43.4436 123.399 43.4436C122.031 43.4436 121.21 42.3657 121.21 41.076C121.21 39.7864 122.031 38.7217 123.399 38.7217ZM124.722 40.666C124.702 39.9981 124.173 39.3764 123.399 39.3764C122.626 39.3764 122.031 39.965 121.945 40.666H124.722Z" fill="#F7F7F7"></path>
  <path d="M129.689 45.4541C129.689 45.5731 129.583 45.6723 129.477 45.6723H129.193C129.074 45.6723 128.975 45.5731 128.975 45.4541V39.0391C128.975 38.9333 129.074 38.8209 129.193 38.8209H129.358C129.464 38.8209 129.497 38.8473 129.544 38.9664L129.61 39.1846C129.61 39.1846 130.159 38.7217 130.972 38.7217C132.202 38.7217 133.075 39.7864 133.075 41.076C133.075 42.3657 132.182 43.4436 130.946 43.4436C130.192 43.4436 129.696 43.0733 129.696 43.0733V45.4475L129.689 45.4541ZM130.833 42.7889C131.706 42.7889 132.341 42.0548 132.341 41.0694C132.341 40.1898 131.792 39.3764 130.886 39.3764C130.165 39.3764 129.696 39.9253 129.696 39.9253V42.3987C129.696 42.3987 130.212 42.7889 130.84 42.7889H130.833Z" fill="#F7F7F7"></path>
  <path d="M136.289 38.7217C137.539 38.7217 138.558 39.7997 138.558 41.0694C138.558 42.3392 137.539 43.4436 136.289 43.4436C135.039 43.4436 134.021 42.359 134.021 41.0694C134.021 39.7798 135.039 38.7217 136.289 38.7217ZM136.289 42.7889C137.182 42.7889 137.837 42.0085 137.837 41.0694C137.837 40.1303 137.182 39.3764 136.289 39.3764C135.396 39.3764 134.735 40.1502 134.735 41.0694C134.735 41.9887 135.403 42.7889 136.289 42.7889Z" fill="#F7F7F7"></path>
  <path d="M142.38 39.9319L141.051 43.3246C141.031 43.3841 140.971 43.4436 140.866 43.4436H140.806C140.7 43.4436 140.641 43.3973 140.608 43.3246L139.358 39.0722C139.318 38.9267 139.358 38.8209 139.536 38.8209H139.867C139.973 38.8209 140.052 38.8672 140.072 38.9465L140.905 42.0151H140.925L142.195 38.8275C142.215 38.768 142.281 38.7217 142.393 38.7217H142.453C142.539 38.7217 142.618 38.768 142.638 38.8275L143.901 42.0284H143.921L144.754 38.9465C144.774 38.8672 144.854 38.8209 144.94 38.8209H145.283C145.442 38.8209 145.488 38.9267 145.442 39.0722L144.212 43.3246C144.192 43.3907 144.113 43.4436 144.027 43.4436H143.967C143.868 43.4436 143.802 43.3841 143.769 43.3246L142.407 39.9319H142.387H142.38Z" fill="#F7F7F7"></path>
  <path d="M148.444 38.7217C149.628 38.7217 150.488 39.5946 150.488 40.7784C150.488 40.8578 150.475 40.9768 150.468 41.0496C150.461 41.1686 150.362 41.248 150.263 41.248H146.976C146.996 42.0019 147.631 42.7955 148.451 42.7955C149.046 42.7955 149.417 42.5905 149.675 42.4252C149.833 42.3193 149.899 42.2797 150.018 42.4516L150.137 42.617C150.223 42.7558 150.263 42.8021 150.098 42.9278C149.827 43.146 149.225 43.4436 148.444 43.4436C147.075 43.4436 146.255 42.3657 146.255 41.076C146.255 39.7864 147.075 38.7217 148.444 38.7217ZM149.76 40.666C149.741 39.9981 149.212 39.3764 148.438 39.3764C147.664 39.3764 147.069 39.965 146.983 40.666H149.76Z" fill="#F7F7F7"></path>
  <path d="M151.671 39.0325C151.671 38.9267 151.771 38.8143 151.89 38.8143H152.048C152.134 38.8143 152.214 38.8606 152.247 38.973L152.326 39.297C152.326 39.297 152.776 38.7217 153.715 38.7217C154.059 38.7217 154.614 38.768 154.509 39.0854L154.383 39.4359C154.337 39.5814 154.224 39.5946 154.118 39.5417C154.013 39.4888 153.847 39.4161 153.629 39.4161C152.756 39.4161 152.405 39.9914 152.405 39.9914V43.1196C152.405 43.2386 152.3 43.3312 152.187 43.3312H151.896C151.777 43.3312 151.678 43.232 151.678 43.1196V39.0325H151.671Z" fill="#F7F7F7"></path>
  <path d="M159.555 38.7217C160.805 38.7217 161.823 39.7997 161.823 41.0694C161.823 42.3392 160.805 43.4436 159.555 43.4436C158.305 43.4436 157.286 42.359 157.286 41.0694C157.286 39.7798 158.305 38.7217 159.555 38.7217ZM159.555 42.7889C160.448 42.7889 161.102 42.0085 161.102 41.0694C161.102 40.1303 160.448 39.3764 159.555 39.3764C158.662 39.3764 158.001 40.1502 158.001 41.0694C158.001 41.9887 158.669 42.7889 159.555 42.7889Z" fill="#F7F7F7"></path>
  <path d="M163.377 39.4497H162.656C162.537 39.4497 162.438 39.3505 162.438 39.2314V39.0331C162.438 38.9074 162.537 38.8148 162.656 38.8148H163.377V38.1006C163.377 36.9763 163.906 36.3877 164.885 36.3877C165.5 36.3877 165.924 36.6588 166.129 36.8572C166.195 36.9234 166.214 37.0424 166.168 37.1086L165.983 37.34C165.904 37.4458 165.824 37.4392 165.699 37.3532C165.454 37.1747 165.249 37.0424 164.865 37.0424C164.35 37.0424 164.105 37.426 164.105 38.1006V38.8148H165.447C165.566 38.8148 165.666 38.9008 165.666 39.0331V39.2314C165.666 39.3505 165.566 39.4497 165.447 39.4497H164.105V43.1267C164.105 43.2458 164.006 43.3384 163.887 43.3384H163.596C163.477 43.3384 163.377 43.2392 163.377 43.1267V39.4497Z" fill="#F7F7F7"></path>
  <path d="M168.278 43.0865L171.254 36.5062C171.281 36.4467 171.334 36.4004 171.42 36.4004H171.519C171.605 36.4004 171.658 36.4467 171.684 36.5062L174.64 43.0865C174.7 43.2122 174.62 43.3378 174.475 43.3378H174.085C173.999 43.3378 173.939 43.2783 173.919 43.232L173.199 41.6184H169.727L169.012 43.232C168.992 43.2783 168.933 43.3378 168.847 43.3378H168.457C168.311 43.3378 168.232 43.2122 168.291 43.0865H168.278ZM172.921 41.0099C172.438 39.9452 171.975 38.8672 171.492 37.8024H171.413L169.984 41.0099H172.921Z" fill="#F7F7F7"></path>
  <path d="M175.645 36.6783C175.645 36.5791 175.731 36.4932 175.83 36.4932H176.22C176.32 36.4932 176.406 36.5791 176.406 36.6783V43.1528C176.406 43.252 176.32 43.338 176.22 43.338H175.83C175.731 43.338 175.645 43.252 175.645 43.1528V36.6783Z" fill="#F7F7F7"></path>
  <path d="M180.274 37.128C180.274 36.8172 180.506 36.5791 180.803 36.5791C181.101 36.5791 181.339 36.8106 181.339 37.128C181.339 37.4124 181.108 37.6571 180.803 37.6571C180.499 37.6571 180.274 37.4124 180.274 37.128ZM180.46 39.0327C180.46 38.9269 180.559 38.8144 180.678 38.8144H180.969C181.075 38.8144 181.187 38.9203 181.187 39.0327V43.1198C181.187 43.2388 181.081 43.3314 180.969 43.3314H180.678C180.559 43.3314 180.46 43.2322 180.46 43.1198V39.0327Z" fill="#F7F7F7"></path>
  <path d="M182.708 39.0325C182.708 38.9267 182.808 38.8143 182.927 38.8143H183.085C183.185 38.8143 183.244 38.8539 183.264 38.9531L183.363 39.297C183.363 39.297 183.939 38.7217 184.878 38.7217C186.187 38.7217 186.511 39.5748 186.511 40.7388V43.1262C186.511 43.2452 186.405 43.3378 186.3 43.3378H186.009C185.89 43.3378 185.797 43.2386 185.797 43.1262V40.6396C185.797 39.7798 185.506 39.3764 184.838 39.3764C183.985 39.3764 183.449 40.0047 183.449 40.0047V43.1262C183.449 43.2452 183.343 43.3378 183.231 43.3378H182.94C182.821 43.3378 182.722 43.2386 182.722 43.1262V39.0391L182.708 39.0325Z" fill="#F7F7F7"></path>
  <path d="M189.864 39.4503C189.725 39.4503 189.639 39.3511 189.639 39.2321V39.0337C189.639 38.9081 189.725 38.8155 189.864 38.8155H190.459V37.5655C190.459 37.4465 190.565 37.3605 190.677 37.3473L190.982 37.3274C191.101 37.3208 191.187 37.4267 191.187 37.5457V38.8155H192.516C192.642 38.8155 192.741 38.9014 192.741 39.0337V39.2321C192.741 39.3511 192.642 39.4503 192.516 39.4503H191.187V42.1486C191.187 42.6182 191.332 42.7967 191.59 42.7967C192.013 42.7967 192.291 42.6182 192.483 42.5057C192.661 42.3999 192.714 42.4859 192.767 42.5917L192.853 42.7967C192.913 42.9422 192.893 43.015 192.774 43.0877C192.575 43.2266 192.106 43.4514 191.504 43.4514C190.644 43.4514 190.466 42.9025 190.466 42.2015V39.4503H189.871H189.864Z" fill="#F7F7F7"></path>
  <path d="M193.878 36.7048C193.878 36.599 193.978 36.4932 194.097 36.4932H194.388C194.493 36.4932 194.606 36.599 194.606 36.7048V39.2972C194.606 39.2972 195.135 38.7219 196.041 38.7219C197.165 38.7219 197.674 39.4163 197.674 40.739V43.1264C197.674 43.2454 197.569 43.338 197.463 43.338H197.159C197.04 43.338 196.94 43.2388 196.94 43.1264V40.739C196.94 39.8792 196.689 39.3766 195.995 39.3766C195.135 39.3766 194.606 40.0247 194.606 40.0247V43.1264C194.606 43.2454 194.5 43.338 194.388 43.338H194.097C193.978 43.338 193.878 43.2388 193.878 43.1264V36.7114V36.7048Z" fill="#F7F7F7"></path>
  <path d="M201.054 38.7217C202.238 38.7217 203.098 39.5946 203.098 40.7784C203.098 40.8578 203.084 40.9768 203.078 41.0496C203.064 41.1686 202.972 41.248 202.873 41.248H199.586C199.606 42.0019 200.241 42.7955 201.061 42.7955C201.656 42.7955 202.026 42.5905 202.284 42.4252C202.443 42.3193 202.509 42.2797 202.628 42.4516L202.747 42.617C202.833 42.7558 202.873 42.8021 202.707 42.9278C202.436 43.146 201.834 43.4436 201.054 43.4436C199.685 43.4436 198.865 42.3657 198.865 41.076C198.865 39.7864 199.685 38.7217 201.054 38.7217ZM202.377 40.666C202.357 39.9981 201.828 39.3764 201.054 39.3764C200.28 39.3764 199.685 39.965 199.599 40.666H202.377Z" fill="#F7F7F7"></path>
  <path d="M208.626 38.7217C209.301 38.7217 209.85 38.9862 210.267 39.4624C210.353 39.5682 210.333 39.6938 210.227 39.7864L210.068 39.9319C209.923 40.0576 209.837 39.9584 209.744 39.8658C209.433 39.5153 209.069 39.3764 208.607 39.3764C207.747 39.3764 207.059 40.1369 207.059 41.076C207.059 42.0151 207.734 42.7889 208.574 42.7889C209.255 42.7889 209.552 42.4384 209.804 42.1408C209.929 41.9953 210.055 42.035 210.187 42.1606L210.247 42.2201C210.346 42.3194 210.386 42.4186 210.306 42.531C209.962 43.027 209.36 43.4436 208.607 43.4436C207.264 43.4436 206.325 42.445 206.325 41.0893C206.325 39.7335 207.304 38.7217 208.613 38.7217H208.626Z" fill="#F7F7F7"></path>
  <path d="M211.569 36.7048C211.569 36.599 211.668 36.4932 211.787 36.4932H212.078C212.184 36.4932 212.297 36.599 212.297 36.7048V43.1198C212.297 43.2388 212.191 43.3314 212.078 43.3314H211.787C211.668 43.3314 211.569 43.2322 211.569 43.1198V36.7048Z" fill="#F7F7F7"></path>
  <path d="M215.842 38.7217C217.092 38.7217 218.11 39.7997 218.11 41.0694C218.11 42.3392 217.092 43.4436 215.842 43.4436C214.592 43.4436 213.573 42.359 213.573 41.0694C213.573 39.7798 214.592 38.7217 215.842 38.7217ZM215.842 42.7889C216.734 42.7889 217.389 42.0085 217.389 41.0694C217.389 40.1303 216.734 39.3764 215.842 39.3764C214.949 39.3764 214.287 40.1502 214.287 41.0694C214.287 41.9887 214.955 42.7889 215.842 42.7889Z" fill="#F7F7F7"></path>
  <path d="M219.293 39.0327C219.293 38.9269 219.379 38.8145 219.512 38.8145H219.803C219.922 38.8145 220.021 38.9203 220.021 39.0327V41.4796C220.021 42.3791 220.312 42.7891 220.967 42.7891C221.621 42.7891 222.045 42.3659 222.25 42.1344V39.0327C222.25 38.9269 222.336 38.8145 222.455 38.8145H222.759C222.865 38.8145 222.964 38.9203 222.964 39.0327V43.1198C222.964 43.2388 222.865 43.3314 222.759 43.3314H222.6C222.474 43.3314 222.422 43.252 222.395 43.133L222.309 42.8486C222.144 43.0272 221.721 43.4372 220.914 43.4372C219.611 43.4372 219.3 42.6568 219.3 41.4598V39.0261L219.293 39.0327Z" fill="#F7F7F7"></path>
  <path d="M226.343 38.7219C227.084 38.7219 227.593 39.0062 227.593 39.0062V36.7048C227.593 36.599 227.693 36.4932 227.812 36.4932H228.083C228.202 36.4932 228.308 36.599 228.308 36.7048V43.1198C228.308 43.2388 228.202 43.3314 228.083 43.3314H227.904C227.805 43.3314 227.745 43.252 227.706 43.1462L227.646 42.8552C227.646 42.8552 227.071 43.4438 226.218 43.4438C225.074 43.4438 224.194 42.3592 224.194 41.0696C224.194 39.78 224.974 38.7219 226.337 38.7219H226.343ZM226.317 42.7891C227.13 42.7891 227.6 42.0682 227.6 42.0682V39.6345C227.6 39.6345 227.071 39.3832 226.449 39.3832C225.484 39.3832 224.941 40.1834 224.941 41.0828C224.941 41.9823 225.497 42.7957 226.317 42.7957V42.7891Z" fill="#F7F7F7"></path>
  <path d="M235.397 30.2827V30.1901C235.397 30.0732 235.303 29.9785 235.186 29.9785L61.1809 29.9785C61.064 29.9785 60.9693 30.0732 60.9693 30.1901V30.2827C60.9693 30.3996 61.064 30.4944 61.1809 30.4944L235.186 30.4944C235.303 30.4944 235.397 30.3996 235.397 30.2827Z" fill="#F7F7F7"></path>
  <path d="M133.809 8.31954C132.268 5.99824 129.424 4.80783 126.666 4.80783C121.819 4.80783 117.924 8.61053 117.924 13.4648C117.924 18.319 121.667 22.3201 126.607 22.3201C129.51 22.3201 132.182 20.9577 133.868 18.5769H136.19C134.45 22.1812 130.641 24.4165 126.666 24.4165C123.823 24.4165 121.005 23.2261 119.002 21.2487C116.879 19.1589 115.834 16.4011 115.834 13.4648C115.834 10.5284 117.051 7.83015 119.088 5.71387C120.919 3.82905 123.677 2.72461 126.64 2.72461C129.431 2.72461 132.01 3.71001 133.816 5.71387V3.27352H135.733V8.32614H133.816L133.809 8.31954Z" fill="#FFFCFF"></path>
  <path d="M141.738 22.2017H144.264V24.0006H137.089V22.2017H139.82V5.06642H137.267V3.26758H141.738V22.2017Z" fill="#FFFCFF"></path>
  <path d="M145.164 16.4812C145.164 12.037 148.768 8.49219 153.206 8.49219C157.644 8.49219 161.135 12.037 161.135 16.3357C161.135 20.6344 157.624 24.4106 153.146 24.4106C148.669 24.4106 145.157 20.8394 145.157 16.4812H145.164ZM159.218 16.4481C159.218 13.1348 156.546 10.377 153.18 10.377C149.813 10.377 147.082 13.0753 147.082 16.415C147.082 19.7548 149.754 22.5126 153.153 22.5126C156.552 22.5126 159.224 19.7813 159.224 16.4415L159.218 16.4481Z" fill="#FFFCFF"></path>
  <path d="M175.513 21.4482C174.527 23.3065 172.609 24.411 170.427 24.411C168.245 24.411 166.161 22.9891 165.229 21.4482C164.733 20.6347 164.442 19.5038 164.442 17.705V10.5625H161.889V8.76367H166.36V16.9841C166.36 18.406 166.386 19.775 167.319 20.9918C168.218 22.1823 169.468 22.7312 170.976 22.6187C172.484 22.4997 173.648 21.8648 174.402 20.9654C175.447 19.7155 175.506 18.611 175.506 17.0437V10.5691H172.953V8.77029H177.424V22.2153H180.01V24.0142H175.506V21.4614L175.513 21.4482Z" fill="#FFFCFF"></path>
  <path d="M194.738 20.7791C193.429 23.0475 191.134 24.4098 188.495 24.4098C186.081 24.4098 183.297 22.902 181.961 20.7791C181.174 19.5292 180.625 17.9023 180.625 16.3944C180.625 12.1552 184.17 8.49801 188.409 8.49801C191.054 8.49801 193.521 9.89343 194.738 12.2743V5.07228H192.185V3.27344H196.656V22.2076H199.209V24.0064H194.738V20.7857V20.7791ZM194.797 16.3878C194.797 13.0216 192.04 10.3167 188.7 10.3167C185.36 10.3167 182.543 13.1076 182.543 16.5002C182.543 19.8929 185.36 22.5978 188.7 22.5978C192.04 22.5978 194.797 19.8069 194.797 16.3812V16.3878Z" fill="#FFFCFF"></path>
  <path d="M203.746 24.0007C204.878 24.0007 205.796 23.0828 205.796 21.9505C205.796 20.8183 204.878 19.9004 203.746 19.9004C202.613 19.9004 201.696 20.8183 201.696 21.9505C201.696 23.0828 202.613 24.0007 203.746 24.0007Z" fill="#FFFCFF"></path>
</svg>
